<svg version="1" xmlns="http://www.w3.org/2000/svg" width="640" height="640" viewBox="0 0 480.000000 480.000000"><path d="M221.9.5c-.2.1-3.6.6-7.4.9-3.9.4-8.2.9-9.5 1.1-1.4.3-5.3 1-8.7 1.5-13.1 2.1-35.8 8.9-49.3 14.6-18.8 8.1-42.8 22.5-58 34.8-7.5 6.1-24.5 22.6-31.2 30.1-8.8 10.1-21.4 28.6-29.1 42.6-7.6 13.9-18.8 42.1-21.1 53.4-3.4 15.9-4.6 21.8-5.1 26-.3 2.8-1 7.9-1.4 11.5-.9 6.3-.6 43.9.3 51 6.9 53.5 30.1 101.9 66.7 139.1C81.8 421 84.9 423.7 97 432.7c22.8 16.8 47.8 29.4 74 37.1 10.9 3.2 21 5.7 27 6.5 1.9.3 7.3 1.1 12 1.8 13.2 2 60.3 1.6 63.9-.5.3-.2 2.9-.6 5.8-1 16.4-1.9 43.4-10.4 63.3-19.9 15.6-7.4 35.7-19.9 46.9-29.2 32.5-26.8 54.7-56.3 71.4-94.5 5.1-11.6 12.4-35.5 14.1-46 .3-1.9 1-5.9 1.5-8.7 1.9-9.8 2.6-20.8 2.5-39.8-.1-21.3-.8-30.1-3.8-44.5-.3-1.4-.8-3.9-1.2-5.5-4.7-24.1-18.1-56-33-78.9C429.2 91 412.7 72.1 396.5 58c-28.9-25-70.6-45.8-105.4-52.5-1.3-.2-3-.6-3.9-.9-.9-.3-3.7-.8-6.2-1.1-2.5-.3-7.4-1.1-11-1.7-5.9-1-47.3-2.1-48.1-1.3zM262.5 21c9 1.1 14.4 1.8 17.5 2.5 19.5 3.8 39.9 10.6 56.9 19.1C359.8 54 376.5 65.8 394.1 83c8.3 8.2 21.9 23.7 21.9 24.9 0 .6-34.7 24.3-42.2 28.9l-3.8 2.3-2.7-3.3c-4.1-5.1-19.2-20-24.8-24.5-19.7-15.8-47.7-28.7-71-32.8-1.6-.2-3.9-.7-5-.9-12.7-2.5-39.8-2.5-53 0-26.5 5-48.7 14.1-68.5 28.2-8.9 6.3-24.7 21-31.9 29.6l-3.2 3.8-21.2-14.1c-11.7-7.8-22.1-14.8-23.1-15.6-1.8-1.4-1.6-1.8 4-8.7 7.5-9.5 22.9-24.7 32.5-32.4 22.4-17.9 51.6-33 77.2-40 11.9-3.2 12.2-3.3 18.7-4.4 3-.6 6.6-1.2 8-1.5 1.4-.3 5.7-.8 9.5-1.1 3.9-.4 7.2-.8 7.4-1 .7-.6 32.9-.1 39.6.6zM65.8 155.6c12 8 22.2 15.1 22.9 15.8.9.8.4 3.2-2.2 10.3-3.8 10.1-8.1 26.1-9 33.8-.3 2.7-.8 6.6-1.1 8.5-1.1 8.1-.5 30.7 1.2 40.5.3 1.6.7 4.3 1 6 3.9 23 16.4 50.4 32.3 70.8 4.5 5.7 17.1 18.9 22.5 23.4 23.6 20.1 51.3 32.5 83.9 37.8l3.7.6v56.2l-6.2-.7c-11.4-1.3-14.6-1.9-28-5-27.5-6.4-61.8-23.5-85.3-42.4-8.9-7.3-25.4-23.7-32.7-32.7-23.3-28.9-41.9-70.8-46.3-104.5-.4-3-1-6.4-1.2-7.5-.3-1.1-.6-11.2-.8-22.5-.3-18.3 0-24.2 2.1-38.5 2.3-16.1 9.4-40.1 16.4-55.3 2.4-5 4.5-9.2 4.7-9.2.3 0 10.2 6.6 22.1 14.6zm375-5.7c8.8 18.7 15.4 43.1 18 65.6 1.4 12.5.5 55.5-1.3 58.5-.1.3-.6 2.6-.9 5.2-.4 2.6-.9 5.3-1.1 6-.2.7-.7 2.4-.9 3.8-5.1 26.6-22.2 62.6-41.6 87.1-7.9 10-24.9 27.3-34.5 35.1-25.9 20.8-64.2 39.1-93 44.2-1.6.3-4.1.8-5.5 1.1-4.9.9-8.6 1.5-14.7 2.1l-6.3.7v-28.2c0-21.8.3-28.1 1.3-28.2 3.8-.2 16.5-2.9 24.2-5 49.9-14.1 90.2-51 109-99.9 4.7-12.1 7.2-21.7 9.1-35.5.3-2.8.8-5.9 1-7 .5-2.5.5-26.9 0-31-.2-1.7-.6-5.5-1-8.5-1-8.3-4.9-23.4-8.9-34-2.4-6.2-3.3-9.8-2.6-10.5 1.3-1.3 44.3-30.4 45-30.4.3-.1 2.5 3.9 4.7 8.8z"/></svg>